<svg xmlns="http://www.w3.org/2000/svg" viewBox="0 0 120 120" role="img" aria-label="KiwiWiki">
  <rect width="120" height="120" rx="26" fill="#1F5A39"></rect>
  <g transform="translate(0,0)">
  <circle cx="60" cy="60" r="54" fill="none" stroke="#EAF3EC" stroke-width="3.5"></circle>
  <g><line x1="60.00" y1="51.00" x2="60.00" y2="15.00" stroke="rgba(234,243,236,0.30)" stroke-width="1" stroke-linecap="round"></line><line x1="64.50" y1="52.21" x2="82.50" y2="21.03" stroke="rgba(234,243,236,0.30)" stroke-width="1" stroke-linecap="round"></line><line x1="67.79" y1="55.50" x2="98.97" y2="37.50" stroke="rgba(234,243,236,0.30)" stroke-width="1" stroke-linecap="round"></line><line x1="69.00" y1="60.00" x2="105.00" y2="60.00" stroke="rgba(234,243,236,0.30)" stroke-width="1" stroke-linecap="round"></line><line x1="67.79" y1="64.50" x2="98.97" y2="82.50" stroke="rgba(234,243,236,0.30)" stroke-width="1" stroke-linecap="round"></line><line x1="64.50" y1="67.79" x2="82.50" y2="98.97" stroke="rgba(234,243,236,0.30)" stroke-width="1" stroke-linecap="round"></line><line x1="60.00" y1="69.00" x2="60.00" y2="105.00" stroke="rgba(234,243,236,0.30)" stroke-width="1" stroke-linecap="round"></line><line x1="55.50" y1="67.79" x2="37.50" y2="98.97" stroke="rgba(234,243,236,0.30)" stroke-width="1" stroke-linecap="round"></line><line x1="52.21" y1="64.50" x2="21.03" y2="82.50" stroke="rgba(234,243,236,0.30)" stroke-width="1" stroke-linecap="round"></line><line x1="51.00" y1="60.00" x2="15.00" y2="60.00" stroke="rgba(234,243,236,0.30)" stroke-width="1" stroke-linecap="round"></line><line x1="52.21" y1="55.50" x2="21.03" y2="37.50" stroke="rgba(234,243,236,0.30)" stroke-width="1" stroke-linecap="round"></line><line x1="55.50" y1="52.21" x2="37.50" y2="21.03" stroke="rgba(234,243,236,0.30)" stroke-width="1" stroke-linecap="round"></line></g>
  <g><ellipse cx="67.57" cy="26.85" rx="1.7" ry="3.6" fill="#EAF3EC" transform="rotate(12.9 67.57 26.85)"></ellipse><ellipse cx="81.20" cy="33.42" rx="1.7" ry="3.6" fill="#EAF3EC" transform="rotate(38.6 81.20 33.42)"></ellipse><ellipse cx="90.63" cy="45.25" rx="1.7" ry="3.6" fill="#EAF3EC" transform="rotate(64.3 90.63 45.25)"></ellipse><ellipse cx="94.00" cy="60.00" rx="1.7" ry="3.6" fill="#EAF3EC" transform="rotate(90.0 94.00 60.00)"></ellipse><ellipse cx="90.63" cy="74.75" rx="1.7" ry="3.6" fill="#EAF3EC" transform="rotate(115.7 90.63 74.75)"></ellipse><ellipse cx="81.20" cy="86.58" rx="1.7" ry="3.6" fill="#EAF3EC" transform="rotate(141.4 81.20 86.58)"></ellipse><ellipse cx="67.57" cy="93.15" rx="1.7" ry="3.6" fill="#EAF3EC" transform="rotate(167.1 67.57 93.15)"></ellipse><ellipse cx="52.43" cy="93.15" rx="1.7" ry="3.6" fill="#EAF3EC" transform="rotate(192.9 52.43 93.15)"></ellipse><ellipse cx="38.80" cy="86.58" rx="1.7" ry="3.6" fill="#EAF3EC" transform="rotate(218.6 38.80 86.58)"></ellipse><ellipse cx="29.37" cy="74.75" rx="1.7" ry="3.6" fill="#EAF3EC" transform="rotate(244.3 29.37 74.75)"></ellipse><ellipse cx="26.00" cy="60.00" rx="1.7" ry="3.6" fill="#EAF3EC" transform="rotate(270.0 26.00 60.00)"></ellipse><ellipse cx="29.37" cy="45.25" rx="1.7" ry="3.6" fill="#EAF3EC" transform="rotate(295.7 29.37 45.25)"></ellipse><ellipse cx="38.80" cy="33.42" rx="1.7" ry="3.6" fill="#EAF3EC" transform="rotate(321.4 38.80 33.42)"></ellipse><ellipse cx="52.43" cy="26.85" rx="1.7" ry="3.6" fill="#EAF3EC" transform="rotate(347.1 52.43 26.85)"></ellipse></g>
  <circle cx="60" cy="60" r="7.5" fill="none" stroke="#EAF3EC" stroke-width="1.5"></circle>
  </g>
</svg>